<svg viewBox="0 0 32 32"  width="100%" height="100%" xmlns="http://www.w3.org/2000/svg">
    <g id="folder" fill="none" fill-rule="evenodd">
        <path d="M0 2.995C0 2.445.442 2 1.01 2h8.91c.557 0 1.326.31 1.72.696L14 5h17.007c.548 0 .993.44.993 1.002v19.996c0 .553-.452 1.002-.993 1.002H.993A1 1 0 0 1 0 26.005V2.995z" fill="#F9C932"></path>
        <path d="M1 2.995v23.01c0-.007.002-.005-.007-.005h30.014c-.01 0-.007-.003-.007-.002V6.002c0-.008.006-.002.007-.002H13.586l-.293-.293-2.29-2.29c-.203-.203-.716-.417-1-.417H.997C.998 3 1 2.998 1 2.995zm-1 0C0 2.445.445 2 .996 2h9.008c.55 0 1.317.32 1.707.71L14 5h17.007c.548 0 .993.44.993 1.002v19.996c0 .553-.452 1.002-.993 1.002H.993A1 1 0 0 1 0 26.005V2.995z" fill="#EBBA37"></path>
        <path fill="#FFF" d="M3 5h11v5H3z"></path>
        <path d="M0 9.003A1 1 0 0 1 .996 8h9.008c.55 0 1.317-.32 1.707-.71L14 5h17.007c.548 0 .993.45.993 1.003v23.994c0 .554-.452 1.003-.993 1.003H.993A.991.991 0 0 1 0 29.997V9.003z" fill="#F7D478"></path>
        <path d="M0 9.003A1 1 0 0 1 .996 8h9.008c.55 0 1.317-.32 1.707-.71L14 5h17.007c.548 0 .993.45.993 1.003v23.994c0 .554-.452 1.003-.993 1.003H.993A.991.991 0 0 1 0 29.997V9.003z"></path>
        <path d="M1 9.003v20.994c0 .01-.006.003-.007.003h30.014c-.01 0-.007-.003-.007-.003V6.003C31 6 31 6 31.007 6H14l.707-.293-2.29 2.29C11.84 8.573 10.82 9 10.005 9H.996C1 9 1 9 1 9.003zm-1 0A1 1 0 0 1 .996 8h9.008c.55 0 1.317-.32 1.707-.71L14 5h17.007c.548 0 .993.45.993 1.003v23.994c0 .554-.452 1.003-.993 1.003H.993A.991.991 0 0 1 0 29.997V9.003z" fill="#EBBA37"></path>
    </g>
    <g id="file" fill="none" fill-rule="evenodd">
        <rect fill="#5C9DF4" width="32" height="32" rx="4"></rect>
        <path d="M1 4.004v23.992A3.003 3.003 0 0 0 4.004 31h23.992A3.003 3.003 0 0 0 31 27.996V4.004A3.003 3.003 0 0 0 27.996 1H4.004A3.003 3.003 0 0 0 1 4.004zm-1 0C0 1.794 1.79 0 4.004 0h23.992C30.206 0 32 1.79 32 4.004v23.992C32 30.206 30.21 32 27.996 32H4.004A4.003 4.003 0 0 1 0 27.996V4.004z" fill-opacity=".05" fill="#000"></path>
        <path d="M24.658 14.126L18.844 8.3c-.44-.44-.998-.44-1.438 0l-7.34 7.356c-.342.3-.56.738-.56 1.228l-.46 5.807c0 .9.265 1.166 1.162 1.166l5.96-.462c.2 0 .39-.036.568-.102.183-.05.357-.146.502-.29l7.42-7.436c.44-.44.44-1 0-1.44" fill="#FFF"></path>
        <path d="M21.746 11.202l-.004.003 2.916 2.92c.22.22.33.47.33.718 0-.25-.11-.502-.33-.724L21.746 11.2" fill="#D9ECFF"></path>
        <path d="M21.742 11.205L9.318 23.63l-.066-.07c.175.212.474.29.956.29l5.96-.463c.2 0 .39-.036.567-.102.184-.05.358-.146.503-.29l7.42-7.436c.22-.22.33-.47.33-.717 0-.25-.11-.497-.33-.717l-2.916-2.92" fill="#D9ECFF"></path>
    </g>
</svg>