<?xml version="1.0" encoding="UTF-8" standalone="no"?><!DOCTYPE svg PUBLIC "-//W3C//DTD SVG 1.1//EN" "http://www.w3.org/Graphics/SVG/1.1/DTD/svg11.dtd"><svg width="256" height="244" viewBox="0 0 256 244" xmlns="http://www.w3.org/2000/svg" xmlns:xlink="http://www.w3.org/1999/xlink"><svg width="22" height="22" viewBox="-2 -2 22 22" id="src--svg--align_center" y="222" xmlns="http://www.w3.org/2000/svg"><title>居中对齐</title><g transform="translate(-343 -103)" fill="none" fill-rule="evenodd"><g transform="translate(345 105)" fill="#525C6F"><path d="M3.583 5H10V4H3v1h.583zM3.583 9H10V8H3v1h.583zM3.318 13H10v-1H3v1h.318zM.59 11H13v-1H0v1h.59zM.59 7H13V6H0v1h.59zM3.583 1H10V0H3v1h.583zM.59 3H13V2H0v1h.59z"/></g></g></svg><svg width="22" height="22" viewBox="-2 -2 22 22" id="src--svg--align_justify" x="176" y="178" xmlns="http://www.w3.org/2000/svg"><title>两端对齐</title><g transform="translate(-343 -43)" fill="none" fill-rule="evenodd"><g transform="translate(345 45)" fill="#525C6F"><path d="M1.083 7H13V6H0v1h1.083zM1.083 11H13v-1H0v1h1.083zM.59 13H13v-1H0v1h.59zM.59 9H13V8H0v1h.59zM.59 5H13V4H0v1h.59zM1.083 3H13V2H0v1h1.083zM.59 1H13V0H0v1h.59z"/></g></g></svg><svg width="22" height="22" viewBox="-2 -2 22 22" id="src--svg--align_left" x="66" y="200" xmlns="http://www.w3.org/2000/svg"><title>左对齐</title><g transform="translate(-343 -16)" fill="none" fill-rule="evenodd"><g transform="translate(345 18)" fill="#525C6F"><path d="M.583 7H7V6H0v1h.583zM.583 11H7v-1H0v1h.583zM.59 13H13v-1H0v1h.59zM.59 9H13V8H0v1h.59zM.59 5H13V4H0v1h.59zM.583 3H7V2H0v1h.583zM.59 1H13V0H0v1h.59z"/></g></g></svg><svg width="22" height="22" viewBox="-2 -2 22 22" id="src--svg--align_right" x="176" y="200" xmlns="http://www.w3.org/2000/svg"><title>右对齐</title><g transform="translate(-343 -73)" fill="none" fill-rule="evenodd"><g transform="translate(345 75)" fill="#525C6F"><path d="M6.583 7H13V6H6v1h.583zM6.583 11H13v-1H6v1h.583zM.59 13H13v-1H0v1h.59zM.59 9H13V8H0v1h.59zM.59 5H13V4H0v1h.59zM6.583 3H13V2H6v1h.583zM.59 1H13V0H0v1h.59z"/></g></g></svg><svg width="22" height="22" viewBox="-2 -2 22 22" id="src--svg--attachment" x="234" y="88" xmlns="http://www.w3.org/2000/svg"><title>附件</title><g transform="translate(-64 -78)" fill="none" fill-rule="evenodd"><path d="M67.363 93.364l-.006-.005a3.09 3.09 0 0 1-.374-4.34l5.244-6.25c1.512-1.802 4.161-2.079 5.905-.615 1.724 1.446 1.896 4.09.384 5.891l-3.82 4.552a.48.48 0 1 1-.737-.619l3.82-4.551c1.19-1.42 1.074-3.412-.266-4.536-1.336-1.122-3.378-.9-4.549.496l-5.244 6.25a2.126 2.126 0 0 0 .257 2.986l.005.004c.436.366.992.541 1.564.492a2.13 2.13 0 0 0 1.46-.757l5.223-6.225c.199-.237.293-.536.266-.843a1.14 1.14 0 0 0-.407-.782l-.002-.002a1.147 1.147 0 0 0-.843-.262 1.145 1.145 0 0 0-.783.41l-4.196 5.032a.482.482 0 0 1-.74-.616l4.198-5.034a2.1 2.1 0 0 1 1.435-.752c.563-.05 1.111.121 1.546.483l.004.003c.432.363.697.872.746 1.435a2.099 2.099 0 0 1-.486 1.547l-5.224 6.225a3.086 3.086 0 0 1-2.115 1.096 3.085 3.085 0 0 1-2.265-.713" fill="#525C6F"/></g></svg><svg width="18" height="24" viewBox="-2 -2 18 24" id="src--svg--attacthment_download" x="156" y="114" xmlns="http://www.w3.org/2000/svg"><title>下载附件</title><path d="M8 9V0H6v9H2l5 5.87L12 9H8zm-8 9h14v2H0v-2z" fill="#555" fill-rule="evenodd"/></svg><svg width="22" height="22" viewBox="-2 -2 22 22" id="src--svg--auto_wrap" x="190" y="110" xmlns="http://www.w3.org/2000/svg"><title>自动换行</title><g transform="translate(-373 -73)" fill="none" fill-rule="evenodd"><g transform="translate(375 75)"><path fill="#525C6F" d="M0 0h14v1H0zM6 13.001v1h1v1h1V10H7v1.001H6v1H5v1h1zM0 4h14v1H0zM0 8h12v1H0zM0 12h3v1H0zM8 12h4v1H8z"/><path fill="#BDC1C8" d="M13 8h1v1h-1zM13 12h1v1h-1z"/><path fill="#686F7E" d="M12 8h1v1h-1z"/><path fill="#6E7789" d="M12 12h1v1h-1z"/><path fill="#525C6F" d="M13 9h1v1h-1zM13 10h1v1h-1zM13 11h1v1h-1z"/></g></g></svg><svg width="22" height="22" viewBox="-2 -2 22 22" id="src--svg--bold" x="190" y="132" xmlns="http://www.w3.org/2000/svg"><title>加粗</title><g transform="translate(-107 -17)" fill="none" fill-rule="evenodd"><g transform="translate(112 20)"><path d="M0 11V0h5.04c1.1 0 1.939.258 2.564.79.606.512.872 1.23.872 2.192 0 1.427-1.1 2.073-1.419 2.257.488.17 1.065.689 1.35 1.033.385.466.55 1.039.55 1.8 0 1.12-.314 1.822-1.1 2.368-.657.437-1.654.56-2.817.56H0z" fill="#525C6F"/><path d="M1.517 10h3.415c.742.01 2.725-.224 2.725-2.062C7.657 6.101 5.67 6 4.932 6H1.517v4zM1.517 4.701h3.16c.687.009 2.522-.207 2.522-1.907S5.359 1 4.677 1h-3.16v3.701z" fill="#FFF"/></g></g></svg><svg width="22" height="22" viewBox="-2 -2 22 22" id="src--svg--border_color" y="178" xmlns="http://www.w3.org/2000/svg"><title>边框颜色</title><g transform="translate(-503 -73)" fill="none" fill-rule="evenodd"><g transform="translate(505 75)"><path d="M12 11H1V1h7V0H0v13h13v-2h-1v1h1V5h-1v6z" fill="#525C6F"/><path fill="#525C6F" d="M0 11h13v2H0z"/><path fill="#ACB4C4" d="M12 0h1v1h-1z"/><path fill="#525C6F" d="M9 2h3v1H9zM8 3h3v1H8zM7 4h3v1H7zM6 5h3v1H6zM5 6h3v1H5zM5 7h2v1H5z"/><path d="M12 1V0h-1v1h-1v1h1v1h1V2h1V1h-1z" fill="#525C6F"/></g></g></svg><svg width="17" height="15" viewBox="-2 -2 17 15" id="src--svg--catalogue" x="136" y="162" xmlns="http://www.w3.org/2000/svg"><title>目录</title><g fill="#525C6F" fill-rule="evenodd"><path d="M1 1v2h2V1H1zM0 0h4v4H0V0zm0 7h4v4H0V7zm1 1v2h2V8H1z" fill-rule="nonzero"/><path d="M5 0h8v1H5zM5 3h5v1H5zM5 7h8v1H5zM5 10h5v1H5z"/></g></svg><svg width="24" height="24" viewBox="-2 -2 24 24" id="src--svg--catalogue-refresh" x="54" y="38" xmlns="http://www.w3.org/2000/svg"><title>Combined Shape</title><path d="M15.93 9A7.002 7.002 0 0 0 2 10a7 7 0 0 0 10.624 5.99l1.038 1.71A9 9 0 1 1 17.945 9H20l-3 3.961L14 9h1.93z" fill="#595959" fill-rule="nonzero"/></svg><svg width="24" height="24" viewBox="-2 -2 24 24" id="src--svg--catalogue_remove" x="88" y="38" xmlns="http://www.w3.org/2000/svg"><title>Combined Shape Copy 2</title><path d="M10.364 8.95L5.414 4 4 5.414l4.95 4.95L4 15.314l1.414 1.414 4.95-4.95 4.95 4.95 1.414-1.414-4.95-4.95 4.95-4.95L15.314 4l-4.95 4.95z" fill="#595959" fill-rule="evenodd"/></svg><svg width="22" height="22" viewBox="-2 -2 22 22" id="src--svg--checked" x="234" xmlns="http://www.w3.org/2000/svg"><title>选中</title><g transform="translate(-659 -16)" fill="none" fill-rule="evenodd"><path d="M675 20l-8.847 9.718-4.153-4.77h.672l3.481 2.031L674.147 20H675z" fill="#525C6F"/></g></svg><svg width="22" height="22" viewBox="-2 -2 22 22" id="src--svg--clean_format" x="234" y="22" xmlns="http://www.w3.org/2000/svg"><title>清楚格式－禁用</title><g transform="translate(-32 -17)" fill="none" fill-rule="evenodd"><g transform="translate(34 20)"><path d="M14.608 0h-6.49c-.272 0-.616.191-.754.427L.12 11.137c-.279.477-.055.863.5.863h6.49c.271 0 .615-.191.752-.427L15.107.863c.28-.477.055-.863-.499-.863z" fill="#CBCBCB"/><path d="M7.03 11H1.45l3.382-5h5.603L7.03 11z" fill="#FFF"/></g></g></svg><svg width="22" height="22" viewBox="-2 -2 22 22" id="src--svg--clean_format_active" x="234" y="44" xmlns="http://www.w3.org/2000/svg"><title>清楚格式</title><g transform="translate(-32 -47)" fill="none" fill-rule="evenodd"><g transform="translate(34 50)"><path d="M14.608 0h-6.49c-.272 0-.616.191-.754.427L.12 11.137c-.279.477-.055.863.5.863h6.49c.271 0 .615-.191.752-.427L15.107.863c.28-.477.055-.863-.499-.863z" fill="#525C6F"/><path d="M7.03 11H1.45l3.382-5h5.603L7.03 11z" fill="#FFF"/></g></g></svg><svg class="apicon" viewBox="-2 -2 1102 1028" width="17" height="17" id="src--svg--code" x="66" y="222" xmlns="http://www.w3.org/2000/svg"><defs><style/></defs><path d="M352.549 799.451l-28.6 28.6q-5.704 5.704-13.165 5.704t-13.166-5.705L31.305 561.737q-5.705-5.705-5.705-13.166t5.705-13.165l266.313-266.313q5.705-5.706 13.166-5.706t13.166 5.706l28.599 28.598q5.705 5.706 5.705 13.166t-5.705 13.166L128 548.57 352.549 773.12q5.705 5.705 5.705 13.166t-5.705 13.165zm337.773-609.718L477.184 927.45q-2.267 7.461-8.85 11.118t-13.459 1.463l-35.4-9.728q-7.461-2.267-11.118-8.85t-1.463-13.97l213.138-737.72q2.267-7.46 8.85-11.117t13.459-1.463l35.4 9.728q7.461 2.267 11.118 8.85t1.463 13.97zm375.37 372.004L799.377 828.05q-5.705 5.705-13.165 5.705t-13.166-5.705l-28.599-28.599q-5.705-5.705-5.705-13.165t5.705-13.166l224.549-224.549-224.549-224.548q-5.705-5.705-5.705-13.166t5.705-13.166l28.599-28.598q5.705-5.706 13.166-5.706t13.165 5.706l266.313 266.313q5.706 5.705 5.706 13.165t-5.706 13.166z" fill="#2c2c2c"/></svg><svg width="9" height="7" viewBox="-2 -2 9 7" id="src--svg--combo_expand" x="174" y="131" xmlns="http://www.w3.org/2000/svg"><title>下拉三角</title><g transform="translate(-289 -24)" fill="none" fill-rule="evenodd"><path d="M292 25h2v-1h-5v1h2-1v1h1v1h1v-1h1v-1h-1z" fill="#9098A8"/></g></svg><svg width="22" height="22" viewBox="-2 -2 22 22" id="src--svg--export" x="234" y="110" xmlns="http://www.w3.org/2000/svg"><title>导出</title><g transform="translate(-273 -77)" fill="none" fill-rule="evenodd"><g transform="translate(276 80)" fill="#525c6f"><path d="M11 6.647l-.002-2.28L7.616 1H1c.003 0 0 11.001 0 11.001C1 11.998 6 12 6 12v1H1.01C.451 13 0 12.553 0 12.001V1C0 .447.455 0 1 0h7.027L12 3.954v2.693h-1z"/><path d="M4 9h5v2H4zM8 0l4 4H8V0zM9 7V13h1v-.857h1v-.857h1v-.857h1v-.857h-1v-.858h-1v-.857h-1V7H9z"/></g></g></svg><svg width="22" height="22" viewBox="-2 -2 22 22" id="src--svg--fixed_top" x="234" y="132" xmlns="http://www.w3.org/2000/svg"><title>置顶</title><g transform="translate(-245 -78)" fill="none" fill-rule="evenodd"><g transform="translate(248 80)"><path fill="#525C6F" d="M0 0h11v1H0zM8 7v6H3V7h1l.004 5L7 12.012V7h1zM6 4h1V3H6v1zM4 4h1V3H4v1z"/><path d="M3 5h1.001V3.999H3V5zM5 3h1V2H5v1z" fill="#525C6F"/><path d="M5 4h1V3H5v1zM6 5h1V4H6v1zM7 6h1V5H7v1zM8 7h1V6H8v1zM4 5h1V4H4v1zM3 6h1V5H3v1zM2 7h1V6H2v1z" fill="#959DAB"/><path d="M2 6h1V5H2v1zM1 7h1V6H1v1zM0 8h4V7H0v1zM7 5h1V3.999H7V5zM8 6h1V5H8v1zM9 7h1V6H9v1zM7 8h4V7H7v1z" fill="#525C6F"/></g></g></svg><svg width="22" height="22" viewBox="-2 -2 22 22" id="src--svg--format_painter" x="234" y="154" xmlns="http://www.w3.org/2000/svg"><title>格式刷</title><g transform="translate(-66 -17)" fill="none" fill-rule="evenodd"><g transform="translate(69 19)"><path d="M0 0v5h10V0H0z" fill="#525C6F"/><path d="M1 1h8v3H1V1z" fill="#FFF"/><path d="M1 4h8V3H1v1z" fill="#BABFCA"/><path d="M11 3v3H5v2H4v6h3V8H6V7h6V3h-1z" fill="#525C6F"/><path d="M5 9h1v4H5V9z" fill="#FFF"/></g></g></svg><svg width="22" height="22" viewBox="-2 -2 22 22" id="src--svg--hr" x="234" y="176" xmlns="http://www.w3.org/2000/svg"><title>横线</title><g transform="translate(-124 -78)" fill="none" fill-rule="evenodd"><path fill="#525C6F" d="M126 87h14v1h-14z"/></g></svg><svg width="22" height="22" viewBox="-2 -2 22 22" id="src--svg--image" x="234" y="198" xmlns="http://www.w3.org/2000/svg"><title>图片</title><g transform="translate(-32 -78)" fill="none" fill-rule="evenodd"><g transform="translate(34 81)"><path d="M1.007 0C.45 0 0 .449 0 1V12c0 .552.451 1 1.007 1h11.986C13.55 13 14 12.553 14 12V1C14 .447 13.549 0 12.993 0H1.007z" fill="#525C6F"/><path d="M13 12.002C13 11.998 1.007 12 1.007 12 1.001 12 1 .998 1 .998 1 1 12.993 1 12.993 1 12.999 1 13 12.003 13 12.003z" fill="#FFF"/><path d="M11.977 8a2.807 2.807 0 0 1-1.831.687A2.83 2.83 0 0 1 7.51 6.876c-.006.002-.011.007-.018.009A2.825 2.825 0 0 0 4.832 5 2.833 2.833 0 0 0 2 7.833c0 .057.014.111.017.167H2v3h10V8h-.023zM10 6a1.5 1.5 0 1 0-.001-3.001A1.5 1.5 0 0 0 10 6" fill="#525C6F"/></g></g></svg><svg width="54" height="64" viewBox="-2 -2 54 64" id="src--svg--image_error" xmlns="http://www.w3.org/2000/svg"><title>ic_Imagesplit</title><g transform="translate(1.5 1.5)" fill="#DEDEDE" fill-rule="evenodd"><path d="M40.591 39.661l-5.055 5.052-5.056-5.052-5.055 5.052-5.056-5.052-5.056 5.052-5.055-5.052-5.055 5.052-5.056-5.052v15.34a1.5 1.5 0 0 0 1.5 1.5h42.5a1.5 1.5 0 0 0 1.5-1.5V44.712l-5.056-5.052zM20.37 41.075l4.35 4.346.706.706.707-.706 4.348-4.346 4.35 4.346.706.706.707-.706 4.348-4.346 4.056 4.053V55a.5.5 0 0 1-.5.5h-42.5a.5.5 0 0 1-.5-.5V42.074l3.349 3.347.707.706.707-.706 4.348-4.346 4.349 4.346.706.706.707-.706 4.35-4.346z"/><path d="M44.147 0h-42.5a1.5 1.5 0 0 0-1.5 1.5v33.39l5.055 5.052 5.056-5.052 5.055 5.052 5.056-5.052 5.056 5.052 5.055-5.052 5.055 5.052 5.056-5.052 5.056 5.052V1.5a1.5 1.5 0 0 0-1.5-1.5m0 1a.5.5 0 0 1 .5.5v36.03l-3.349-3.348-.707-.706-.707.706-4.349 4.346-4.348-4.346-.707-.706-.707.706-4.348 4.346-4.35-4.346-.706-.706-.707.706-4.349 4.346-4.348-4.346-.707-.706-.707.706-4.349 4.346-4.055-4.053V1.5a.5.5 0 0 1 .5-.5h42.5"/><path d="M16.718 14.387a3.112 3.112 0 1 1 0-6.223 3.112 3.112 0 0 1 0 6.223M38.528 26.377L28.431 14.24a1.12 1.12 0 0 0-1.723 0l-6.675 8.024a1.12 1.12 0 0 1-1.723 0l-2.362-2.84a1.12 1.12 0 0 0-1.723 0L8.44 26.377a.912.912 0 0 0 .701 1.495h28.686a.912.912 0 0 0 .701-1.495"/></g></svg><svg width="22" height="22" viewBox="-2 -2 22 22" id="src--svg--indent" x="22" y="222" xmlns="http://www.w3.org/2000/svg"><title>增加缩进</title><g transform="translate(-373 -16)" fill="none" fill-rule="evenodd"><g transform="translate(375 18)" fill="#525C6F"><path d="M7.417 10H12V9H7v1h.417zM.59 13H13v-1H0v1h.59zM7.227 8H12V7H7v1h.227zM7.417 4H12V3H7v1h.417zM7.417 6H12V5H7v1h.417zM.59 1H13V0H0v1h.59zM1 4V9h1v-.999h1v-1h1v-1H3v-1H2V4H1z"/></g></g></svg><svg width="22" height="22" viewBox="-2 -2 22 22" id="src--svg--inline_height" x="158" y="140" xmlns="http://www.w3.org/2000/svg"><title>行高</title><g transform="translate(-505 -16)" fill="none" fill-rule="evenodd"><g transform="translate(506 18)" fill="#525C6F"><path d="M7.667 11H15v-1H7v1h.667zM2 0v1H1v1H0v1h2v7H0v1h1v1h1v1h1v-1h1v-1h1.001v-1H3V3h2.001V2H4V1H3V0H2zM7.667 9H15V8H7v1h.667zM7.667 7H15V6H7v1h.667zM7.182 13H11v-1H7v1h.182zM7.364 5H15V4H7v1h.364zM7.667 3H15V2H7v1h.667zM7.364 1H15V0H7v1h.364z"/></g></g></svg><svg width="22" height="22" viewBox="-2 -2 22 22" id="src--svg--italic" x="190" xmlns="http://www.w3.org/2000/svg"><title>斜体</title><g transform="translate(-143 -17)" fill="none" fill-rule="evenodd"><path d="M151.239 20l-.186.995h1.385l-1.763 9.015h-1.21l-.192.99H153.043l.217-.99h-1.42l1.773-9.015h1.258l.211-.995h-3.843z" fill="#525C6F"/></g></svg><svg width="22" height="22" viewBox="-2 -2 22 22" id="src--svg--line_through" x="190" y="22" xmlns="http://www.w3.org/2000/svg"><title>删除线</title><g transform="translate(-215 -17)" fill="none" fill-rule="evenodd"><g transform="translate(217 20)"><path d="M8.967.816c.712.563 1.113 1.408 1.216 2.52h-1.2c-.134-.77-.43-1.334-.89-1.705-.475-.385-1.141-.563-2.002-.563-.785 0-1.393.118-1.837.385-.504.297-.756.741-.756 1.35 0 .533.296.963.903 1.289.267.148.92.37 1.942.666 1.394.416 2.313.757 2.758 1.024.874.534 1.32 1.275 1.32 2.238 0 .92-.372 1.66-1.112 2.194-.742.52-1.735.785-2.995.785-1.246 0-2.223-.266-2.935-.8C2.55 9.562 2.09 8.598 2 7.294h1.202c.103.92.43 1.6.963 2.03.49.386 1.2.594 2.15.594.86 0 1.572-.163 2.105-.49.533-.326.8-.77.8-1.334 0-.667-.356-1.185-1.052-1.556-.297-.178-1.053-.43-2.239-.77-1.275-.386-2.09-.683-2.43-.86-.816-.475-1.216-1.158-1.216-2.047 0-.919.385-1.645 1.171-2.15C4.149.238 5.054 0 6.151 0c1.186 0 2.134.267 2.816.816" fill="#525C6F"/><path fill="#525C6F" d="M0 5h13v1H0z"/><path fill="#FFF" d="M1 6h9.983v.5H1z"/></g></g></svg><svg width="22" height="22" viewBox="-2 -2 22 22" id="src--svg--link" x="190" y="44" xmlns="http://www.w3.org/2000/svg"><title>链接</title><g transform="translate(-154 -78)" fill="none" fill-rule="evenodd"><g transform="translate(156 84)" fill="#525C6F"><path d="M5.125 7.2H3.6A3.604 3.604 0 0 1 0 3.6C0 1.615 1.615 0 3.6 0h2c1.985 0 3.6 1.615 3.6 3.6a.6.6 0 1 1-1.2 0c0-1.323-1.077-2.4-2.4-2.4h-2a2.403 2.403 0 0 0-2.4 2.4C1.2 4.923 2.277 6 3.6 6h1.525a.6.6 0 1 1 0 1.2"/><path d="M10.6 7.2h-2A3.604 3.604 0 0 1 5 3.6a.6.6 0 1 1 1.2 0C6.2 4.923 7.277 6 8.6 6h2C11.923 6 13 4.923 13 3.6s-1.077-2.4-2.4-2.4H9.075a.6.6 0 0 1 0-1.2H10.6c1.985 0 3.6 1.615 3.6 3.6s-1.615 3.6-3.6 3.6"/></g></g></svg><svg width="22" height="22" viewBox="-2 -2 22 22" id="src--svg--list_ol" x="190" y="66" xmlns="http://www.w3.org/2000/svg"><title>项目编号</title><g transform="translate(-469 -16)" fill="none" fill-rule="evenodd"><g transform="translate(471 18)"><path d="M0 5v1h1v1H0v1h3V7H2V6h1V5H0zM0 0v1h1v2h1V0H0zM0 10v1h2v1H0v1h3v-3H0z" fill="#525C6F"/><path fill="#A9AEB7" d="M1 11h1v1H1z"/><path fill="#525C6F" d="M5 6h8v1H5zM5 11h8v1H5zM5 1h8v1H5z"/></g></g></svg><svg width="22" height="22" viewBox="-2 -2 22 22" id="src--svg--list_ul" x="190" y="88" xmlns="http://www.w3.org/2000/svg"><title>无序列表</title><g transform="translate(-433 -16)" fill="none" fill-rule="evenodd"><g transform="translate(435 18)" fill="#525C6F"><path d="M0 10h2v2H0zM0 5h2v2H0zM0 0h2v2H0zM4 1h9v1H4zM4 6h9v1H4zM4 11h9v1H4z"/></g></g></svg><svg width="16" height="17" viewBox="-2 -2 16 17" id="src--svg--normal_mode" x="136" y="119" xmlns="http://www.w3.org/2000/svg"><title>普通视图</title><path d="M1 12.001L10.998 12C10.996 12 11 .999 11 .999L1.002 1C1.004 1 1 12.001 1 12.001zM1.002 0h9.996A1 1 0 0 1 12 .999V12c0 .552-.456.999-1.002.999H1.002A1 1 0 0 1 0 12.001V1C0 .447.456 0 1.002 0zM3.5 3H9V2H3v1h.5zm0 2H9V4H3v1h.5zm0 2H9V6H3v1h.5zm0 2H9V8H3v1h.5zm0 2H9v-1H3v1h.5z" fill-rule="nonzero" fill="#525C6F"/></svg><svg width="17" height="17" viewBox="-2 -2 17 17" id="src--svg--note_background" x="136" y="102" xmlns="http://www.w3.org/2000/svg"><title>背景</title><g transform="translate(0 -1)" fill="none" fill-rule="evenodd"><path d="M6 2h1v1H6V2zM5 3h1v1H5V3zM4 4h1v1H4V4zM3 5h1v1H3V5zM2 6h1v1H2V6zM1 7h1v1H1V7zM0 8h1v1H0V8zm4-7h1v1H4V1zM3 2h1v1H3V2zM2 3h1v1H2V3zM1 4h1v1H1V4zM0 5h1v1H0V5zm4-5H3h1zM1 1h1v1H1V1zM0 2h1v1H0V2zm8 1h1v1H8V3zm1-1h1v1H9V2zm1-1h1v1h-1V1zM7 4h1v1H7V4zM6 5h1v1H6V5zM5 6h1v1H5V6zM4 7h1v1H4V7zM3 8h1v1H3V8zm-2 2h1v1H1v-1zm-1 1h1v1H0v-1zm4-1h1v1H4v-1zm2-2h1v1H6V8zm1-1h1v1H7V7zm-4 4h1v1H3v-1zm-1 1h1v1H2v-1zm5-2h1v1H7v-1zm-1 1h1v1H6v-1zm-1 1h1v1H5v-1zm4-4h1v1H9V8zm1-1h1v1h-1V7zm1-1h1v1h-1V6zM9 5h1v1H9V5zm1-1h1v1h-1V4zm1-1h1v1h-1V3zm0 7h1v1h-1v-1zm-1 1h1v1h-1v-1zm-1 1h1v1H9v-1zM2 9h1v1H2V9z" fill="#B9BEC9"/><path d="M1 2v11h11V2H1zM0 1h13v13H0V1z" fill="#525C6F" fill-rule="nonzero"/><path fill="#525C6F" fill-rule="nonzero" d="M8 1v12h1V1z"/><path fill="#525C6F" fill-rule="nonzero" d="M0 10h13V9H0z"/></g></svg><svg width="22" height="22" viewBox="-2 -2 22 22" id="src--svg--outdent" x="190" y="154" xmlns="http://www.w3.org/2000/svg"><title>减少缩进</title><g transform="translate(-403 -16)" fill="none" fill-rule="evenodd"><g transform="translate(405 18)" fill="#525C6F"><path d="M1.417 10H6V9H1v1h.417zM.59 13H13v-1H0v1h.59zM1.227 8H6V7H1v1h.227zM1.417 4H6V3H1v1h.417zM1.417 6H6V5H1v1h.417zM.59 1H13V0H0v1h.59zM12 4V9h-1v-.999h-1v-1H9v-1h1v-1h1V4h1z"/></g></g></svg><svg width="16" height="17" viewBox="-2 -2 16 17" id="src--svg--page_mode" x="174" y="114" xmlns="http://www.w3.org/2000/svg"><title>阅读视图</title><path d="M1 .999V12L1.002 12h9.996c-.002 0 .002-.004.002.001V1L10.998 1H1.002C1.004 1 1 1.004 1 .999m-1 0C0 .447.456 0 1.002 0h9.996A1 1 0 0 1 12 .999V12c0 .552-.456.999-1.002.999H1.002A1 1 0 0 1 0 12.001V1M3 3v7h6V3M2 2h8v9H2V2m2.5 3H4V4h4v1H4.5zm0 2H4V6h4v1H4.5zm0 2H4V8h4v1H4.5z" fill-rule="nonzero" fill="#525C6F"/></svg><svg width="20" height="20" viewBox="-2 -2 20 20" id="src--svg--quote" x="102" y="64" xmlns="http://www.w3.org/2000/svg"><title>目录</title><g transform="translate(3 4)" fill="#525C6F" fill-rule="evenodd"><path d="M0 4h4v4H0zM6 4h4v4H6zM0 1h1v3H0zM1 0h2v1H1z"/><g transform="translate(6)"><path d="M0 1h1v3H0zM1 0h2v1H1z"/></g></g></svg><svg width="22" height="22" viewBox="-2 -2 22 22" id="src--svg--read_mode" x="44" y="178" xmlns="http://www.w3.org/2000/svg"><title>阅读视图</title><path d="M4 3.999V15L4.002 15h9.996c-.002 0 .002-.004.002.001V4L13.998 4H4.002C4.004 4 4 4.004 4 3.999m-1 0C3 3.447 3.456 3 4.002 3h9.996A1 1 0 0 1 15 3.999V15c0 .552-.456.999-1.002.999H4.002A1 1 0 0 1 3 15.001V4M6 6v7h6V6M5 5h8v9H5V5m2.5 3H11V7H7v1h.5zm0 2H11V9H7v1h.5zm0 2H11v-1H7v1h.5z" fill="#525c6f" fill-rule="evenodd"/></svg><svg width="22" height="22" viewBox="-2 -2 22 22" id="src--svg--redo" x="66" y="178" xmlns="http://www.w3.org/2000/svg"><title>redo</title><g transform="translate(-86 -47)" fill="none" fill-rule="evenodd"><path d="M94.741 52.714c2.281 0 4.346.925 5.84 2.42l2.419-2.42v7.293h-7.229l2.545-2.607c-1.421-1.214-3.241-1.975-5.256-1.975-2.421 0-4.57 1.366-6.06 3.044 1.148-3.182 4.165-5.755 7.741-5.755z" fill="#CBCBCB"/></g></svg><svg width="22" height="22" viewBox="-2 -2 22 22" id="src--svg--redo_active" x="88" y="178" xmlns="http://www.w3.org/2000/svg"><title>redo hover</title><g transform="translate(-146 -47)" fill="none" fill-rule="evenodd"><path d="M154.741 52.714c2.281 0 4.346.925 5.84 2.42l2.419-2.42v7.293h-7.229l2.545-2.607c-1.421-1.214-3.241-1.975-5.256-1.975-2.421 0-4.57 1.366-6.06 3.044 1.148-3.182 4.165-5.755 7.741-5.755z" fill="#525C6F"/></g></svg><svg width="22" height="22" viewBox="-2 -2 22 22" id="src--svg--reference" x="110" y="178" xmlns="http://www.w3.org/2000/svg"><title>引用</title><g transform="translate(1.635 2)" fill="#525C6F" fill-rule="evenodd"><path d="M3.365 1h10v1h-10zM3.365 6h10v1h-10zM3.365 11h10v1h-10zM.365 0h1v13h-1z"/></g></svg><svg width="22" height="22" viewBox="-2 -2 22 22" id="src--svg--resize_view" x="132" y="178" xmlns="http://www.w3.org/2000/svg"><title>视图大小</title><g transform="translate(-214 -78)" fill="none" fill-rule="evenodd"><g transform="translate(216 80)"><path d="M8.001 13h1v-1h-1v1z" fill="#525C6F"/><rect fill="#525C6F" y="7" width="6" height="6" rx="1"/><path fill="#FFF" d="M1 8h4v4H1z"/><path fill="#525C6F" d="M5 7h1v1H5zM6 6h1v1H6zM7 5h1v1H7z"/><path d="M7 3v1h1v1h1v1h1V3H7zM10 13h1v-1h-1v1zM12.5 12.001H12V13h1.001v-.999h-.5zM12 11.001h1.001v-1H12v1zM12 9.001h1.001V8H12v1.001zM12 7h1.001V6H12v1zM12 5h1.001V4H12v1zM0 5h1V4H0v1zM12 3.001h1.001v-1H12v1zM0 3.001h1v-1H0v1zM12 0v1h1V0h-1zM10 0v1h1V0h-1zM8 0v1h1V0H8zM6 0v1h1V0H6zM4 0v1h1V0H4zM2 0v1h1V0H2zM0 0v1h1V0H0z" fill="#525C6F"/></g></g></svg><svg width="22" height="22" viewBox="-2 -2 22 22" id="src--svg--screenshot" x="154" y="178" xmlns="http://www.w3.org/2000/svg"><title>截图</title><g transform="translate(-184 -77)" fill="none" fill-rule="evenodd"><g transform="translate(186 80)" fill="#525c6f"><path d="M2 0v2H0v1h10v6h1V2H3V0H2z"/><path d="M2 4v7h8v2h1v-2h3v-1H3V4H2z"/></g></g></svg><svg width="22" height="22" viewBox="-2 -2 22 22" id="src--svg--screenshot_x" x="136" y="140" xmlns="http://www.w3.org/2000/svg"><title>隐藏截图</title><g transform="translate(-184 -107)" fill="none" fill-rule="evenodd"><g transform="translate(186 110)"><path d="M2 4v7h8v2h1v-2h3v-1H3V4H2zM2 0v2H0v1h3V0H2z" fill="#525c6f"/><path d="M4 3h1V2H4v1zM6 3h1V2H6v1zM8 3h1.001V2H8v1zM10 3h1V2h-1v1zM10 5h1V3.999h-1V5zM10 7h1V6h-1v1zM10 9h1V8h-1v1z" fill="#8c8f94"/></g></g></svg><svg width="22" height="22" viewBox="-2 -2 22 22" id="src--svg--sync" x="212" xmlns="http://www.w3.org/2000/svg"><title>Slice 1 Copy 6</title><g transform="translate(1 2)" fill="#398DEE" fill-rule="evenodd"><path d="M1.004 6.762a7 7 0 0 0 13.313 3.258l-1.007-.308A6 6 0 0 1 1.957 7.053l-.953-.291zm1.043-3.446A7 7 0 0 1 14.98 6.458l-1.086-.332A6.001 6.001 0 0 0 3.006 3.61l-.96-.294z"/><path d="M0 7.084h3L1.5 5zM13 6h3l-1.5 2.084z"/></g></svg><svg width="22" height="22" viewBox="-2 -2 22 22" id="src--svg--table" x="212" y="22" xmlns="http://www.w3.org/2000/svg"><title>表格</title><g transform="translate(-94 -78)" fill="none" fill-rule="evenodd"><g transform="translate(96 81)"><path d="M1.007 0C.45 0 0 .449 0 1V12c0 .552.451 1 1.007 1h11.986C13.55 13 14 12.553 14 12V1C14 .447 13.549 0 12.993 0H1.007z" fill="#525C6F"/><path d="M13 12.002C13 11.998 1.007 12 1.007 12 1.001 12 1 .998 1 .998 1 1 12.993 1 12.993 1 12.999 1 13 12.003 13 12.003z" fill="#FFF"/><path d="M.538 5H14V4H0v1h.538zM.538 9H14V8H0v1h.538z" fill="#525C6F"/><path d="M4 .59V13h1V0H4v.59zM9 .59V13h1V0H9v.59z" fill="#525C6F"/></g></g></svg><svg width="22" height="22" viewBox="-2 -2 22 22" id="src--svg--table_cell_align_bottom" x="212" y="44" xmlns="http://www.w3.org/2000/svg"><title>末端对齐</title><g transform="translate(-609 -16)" fill="none" fill-rule="evenodd"><g transform="matrix(1 0 0 -1 611 31)" fill="#525C6F"><path d="M0 0h13v1H0zM6 3v1H5v1H4v1h2v7h1V6h2.001V5H8V4H7V3H6z"/></g></g></svg><svg width="22" height="22" viewBox="-2 -2 22 22" id="src--svg--table_cell_align_mid" x="212" y="66" xmlns="http://www.w3.org/2000/svg"><title>水平居中</title><g transform="translate(-576 -16)" fill="none" fill-rule="evenodd"><g transform="translate(578 17)" fill="#525C6F"><path d="M0 7h13v1H0zM6 9v1H5v1H4v1h2v3h1v-3h2.001v-1H8v-1H7V9H6zM6 6V5H5V4H4V3h2V0h1v3h2.001v1H8v1H7v1H6z"/></g></g></svg><svg width="22" height="22" viewBox="-2 -2 22 22" id="src--svg--table_cell_align_top" x="212" y="88" xmlns="http://www.w3.org/2000/svg"><title>顶端对齐</title><g transform="translate(-541 -16)" fill="none" fill-rule="evenodd"><g transform="translate(543 18)" fill="#525C6F"><path d="M0 0h13v1H0zM6 3v1H5v1H4v1h2v7h1V6h2.001V5H8V4H7V3H6z"/></g></g></svg><svg width="22" height="22" viewBox="-2 -2 22 22" id="src--svg--table_cell_border_all" x="212" y="110" xmlns="http://www.w3.org/2000/svg"><title>所有边框线</title><g transform="translate(-373 -43)" fill="none" fill-rule="evenodd"><g transform="translate(375 45)"><path fill="#525C6F" d="M0 0h13v13H0z"/><path fill="#FFF" d="M1 1h11v11H1z"/><path d="M6 .5V13h1V0H6v.5z" fill="#525C6F"/><path d="M.5 7H13V6H0v1h.5z" fill="#525C6F"/></g></g></svg><svg width="22" height="22" viewBox="-2 -2 22 22" id="src--svg--table_cell_border_left" x="212" y="132" xmlns="http://www.w3.org/2000/svg"><title>左框线</title><g transform="translate(-463 -43)" fill="none" fill-rule="evenodd"><g transform="matrix(0 1 1 0 465 45)"><path d="M12 2h1v1h-1V2zM12 4h1v1h-1V4zM0 2h1v1H0V2zM0 4h1v1H0V4zM0 10h1v1H0v-1zM0 8h1v1H0V8zM0 6h1v1H0V6zM12 8h1v1h-1V8zM12 10h1v1h-1v-1zM12 12h1v1h-1v-1zM12 6h1v1h-1V6zM10 6h1v1h-1V6zM8 6h1v1H8V6zM6 10h1v1H6v-1zM6 8h1v1H6V8zM2 6h1v1H2V6zM4 6h1v1H4V6zM6 2h1v1H6V2zM6 4h1v1H6V4zM0 12h1v1H0v-1zM10 12h1v1h-1v-1zM8 12h1v1H8v-1zM2 12h1v1H2v-1zM4 12h1v1H4v-1zM6 12h1v1H6v-1zM6 6h1v1H6V6z" fill="#8C8F94"/><path d="M0 0h13v1H0V0z" fill="#525C6F"/></g></g></svg><svg width="22" height="22" viewBox="-2 -2 22 22" id="src--svg--table_cell_border_none" x="212" y="154" xmlns="http://www.w3.org/2000/svg"><title>无框线</title><g transform="translate(-523 -43)" fill="none" fill-rule="evenodd"><g transform="rotate(90 246.5 291.5)" fill="#8C8F94"><path d="M12 2h1v1h-1V2zM12 4h1v1h-1V4zM8 0h1v1H8V0z"/><path d="M8 0h1v1H8V0zM12 0h1v1h-1V0zM10 0h1v1h-1V0z"/><path d="M8 0h1v1H8V0zM6 0h1v1H6V0zM4 0h1v1H4V0zM2 0h1v1H2V0zM0 0h1v1H0V0zM0 2h1v1H0V2zM0 4h1v1H0V4zM0 10h1v1H0v-1zM0 8h1v1H0V8zM0 6h1v1H0V6zM12 8h1v1h-1V8zM12 10h1v1h-1v-1zM12 12h1v1h-1v-1zM12 6h1v1h-1V6zM10 6h1v1h-1V6zM8 6h1v1H8V6zM6 10h1v1H6v-1zM6 8h1v1H6V8zM2 6h1v1H2V6zM4 6h1v1H4V6zM6 2h1v1H6V2zM6 4h1v1H6V4zM0 12h1v1H0v-1zM10 12h1v1h-1v-1zM8 12h1v1H8v-1zM2 12h1v1H2v-1zM4 12h1v1H4v-1zM6 12h1v1H6v-1zM6 6h1v1H6V6z"/></g></g></svg><svg width="22" height="22" viewBox="-2 -2 22 22" id="src--svg--table_cell_border_out" x="212" y="176" xmlns="http://www.w3.org/2000/svg"><title>外框线</title><g transform="translate(-553 -43)" fill="none" fill-rule="evenodd"><g transform="rotate(90 261.5 306.5)"><path d="M0 12h13v1H0v-1z" fill="#525C6F"/><path fill="#525C6F" d="M12 0h1v13h-1zM0 0h1v13H0z"/><path d="M0 0h13v1H0V0z" fill="#525C6F"/><path d="M10 6h1v1h-1V6zM8 6h1v1H8V6zM6 10h1v1H6v-1zM6 8h1v1H6V8zM2 6h1v1H2V6zM4 6h1v1H4V6zM6 2h1v1H6V2zM6 4h1v1H6V4zM6 6h1v1H6V6z" fill="#8C8F94"/></g></g></svg><svg width="22" height="22" viewBox="-2 -2 22 22" id="src--svg--table_cell_border_right" y="200" xmlns="http://www.w3.org/2000/svg"><title>右框线</title><g transform="translate(-493 -43)" fill="none" fill-rule="evenodd"><g transform="rotate(90 231.5 276.5)"><path d="M0 0h13v1H0V0z" fill="#525C6F"/><path d="M12 2h1v1h-1V2zM12 4h1v1h-1V4zM0 2h1v1H0V2zM0 4h1v1H0V4zM0 10h1v1H0v-1zM0 8h1v1H0V8zM0 6h1v1H0V6zM12 8h1v1h-1V8zM12 10h1v1h-1v-1zM12 12h1v1h-1v-1zM12 6h1v1h-1V6zM10 6h1v1h-1V6zM8 6h1v1H8V6zM6 10h1v1H6v-1zM6 8h1v1H6V8zM2 6h1v1H2V6zM4 6h1v1H4V6zM6 2h1v1H6V2zM6 4h1v1H6V4zM0 12h1v1H0v-1zM10 12h1v1h-1v-1zM8 12h1v1H8v-1zM2 12h1v1H2v-1zM4 12h1v1H4v-1zM6 12h1v1H6v-1zM6 6h1v1H6V6z" fill="#8C8F94"/></g></g></svg><svg width="22" height="22" viewBox="-2 -2 22 22" id="src--svg--table_cell_border_top" x="22" y="200" xmlns="http://www.w3.org/2000/svg"><title>上框线</title><g transform="translate(-403 -43)" fill="none" fill-rule="evenodd"><g transform="translate(405 45)"><path d="M12 2h1v1h-1V2zM12 4h1v1h-1V4zM0 2h1v1H0V2zM0 4h1v1H0V4zM0 10h1v1H0v-1zM0 8h1v1H0V8zM0 6h1v1H0V6zM12 8h1v1h-1V8zM12 10h1v1h-1v-1zM12 12h1v1h-1v-1zM12 6h1v1h-1V6zM10 6h1v1h-1V6zM8 6h1v1H8V6zM6 10h1v1H6v-1zM6 8h1v1H6V8zM2 6h1v1H2V6zM4 6h1v1H4V6zM6 2h1v1H6V2zM6 4h1v1H6V4zM0 12h1v1H0v-1zM10 12h1v1h-1v-1zM8 12h1v1H8v-1zM2 12h1v1H2v-1zM4 12h1v1H4v-1zM6 12h1v1H6v-1zM6 6h1v1H6V6z" fill="#8C8F94"/><path d="M0 0h13v1H0V0z" fill="#525C6F"/></g></g></svg><svg width="22" height="22" viewBox="-2 -2 22 22" id="src--svg--table_cell_broder_bottom" x="44" y="200" xmlns="http://www.w3.org/2000/svg"><title>下框线</title><g transform="translate(-433 -43)" fill="none" fill-rule="evenodd"><g transform="matrix(1 0 0 -1 435 58)"><path d="M12 2h1v1h-1V2zM12 4h1v1h-1V4zM0 2h1v1H0V2zM0 4h1v1H0V4zM0 10h1v1H0v-1zM0 8h1v1H0V8zM0 6h1v1H0V6zM12 8h1v1h-1V8zM12 10h1v1h-1v-1zM12 12h1v1h-1v-1zM12 6h1v1h-1V6zM10 6h1v1h-1V6zM8 6h1v1H8V6zM6 10h1v1H6v-1zM6 8h1v1H6V8zM2 6h1v1H2V6zM4 6h1v1H4V6zM6 2h1v1H6V2zM6 4h1v1H6V4zM0 12h1v1H0v-1zM10 12h1v1h-1v-1zM8 12h1v1H8v-1zM2 12h1v1H2v-1zM4 12h1v1H4v-1zM6 12h1v1H6v-1zM6 6h1v1H6V6z" fill="#8C8F94"/><path d="M0 0h13v1H0V0z" fill="#525C6F"/></g></g></svg><svg width="24" height="22" viewBox="-2 -2 24 22" id="src--svg--table_cell_merge" x="122" y="76" xmlns="http://www.w3.org/2000/svg"><title>合并单元格</title><g transform="translate(-436 -73)" fill="none" fill-rule="evenodd"><g transform="translate(437 75)" fill="#525C6F"><path d="M8 6H7V5H6V4H5v2H2v1h3v2.001h1V8h1V7h1V6zM10 6h1V5h1V4h1v2h3v1h-3v2.001h-1V8h-1V7h-1V6z"/><path d="M8 2.882V0H0v13h8v-2.498H7V12H1V1h6v1.882h1zM10 2.882V0h8v13h-8v-2.498h1V12h6V1h-6v1.882h-1z"/></g></g></svg><svg width="22" height="22" viewBox="-2 -2 22 22" id="src--svg--table_hide_border" x="88" y="200" xmlns="http://www.w3.org/2000/svg"><title>隐藏网格</title><g transform="translate(-473 -73)" fill="none" fill-rule="evenodd"><g transform="translate(475 75)"><path d="M13 0v13H0V0h13z" fill="#525C6F"/><path d="M1 12h10.998L12 1H1.014L1 12z" fill="#FFF"/><path fill="#B9BEC9" d="M6 1h1v1H6zM5 1h1v2H5zM4 1h1v3H4zM3 2h1v3H3zM2 3h1v3H2zM1 4h1v3H1zM11 7h1v3h-1zM10 8h1v3h-1zM9 9h1v3H9z"/><path fill="#B9BEC9" d="M8 10h2v2H8z"/><path fill="#B9BEC9" d="M7 11h3v1H7zM11 1h1v2h-1zM10 1h1v3h-1zM9 2h1v3H9zM8 3h1v3H8zM7 4h1v3H7zM6 5h1v3H6zM5 6h1v3H5zM4 7h1v3H4zM3 8h1v3H3zM2 9h1v3H2zM1 10h1v2H1z"/></g></g></svg><svg width="22" height="22" viewBox="-2 -2 22 22" id="src--svg--table_insert_delete" x="110" y="200" xmlns="http://www.w3.org/2000/svg"><title>插入／删除</title><g transform="translate(-403 -73)" fill="none" fill-rule="evenodd"><g transform="translate(404 75)"><path d="M3.999 3H15c.552 0 .999.456.999.995v8.01c0 .55-.447.995-.999.995H4C3.447 13 3 12.544 3 12.005v-8.01c0-.55.447-.995.999-.995z" fill="#525C6F"/><path d="M4 12.005C4 11.996 15.001 12 15.001 12L15 3.995C15 4.004 3.999 4 3.999 4L4 12.005z" fill="#FFF"/><path d="M4.5 10H16V9H4v1h.5zM4.5 7H16V6H4v1h.5z" fill="#525C6F"/><path d="M11 3.5V13h1V3h-1v.5zM7 3.5V13h1V3H7v.5z" fill="#525C6F"/><rect fill="#D5D7DC" width="13" height="4" rx="1"/><path d="M.999 0H12c.552 0 .999.443.999 1.01v1.98c0 .558-.447 1.01-.999 1.01H1A.999.999 0 0 1 0 2.99V1.01C0 .451.447 0 .999 0z" fill="#525C6F"/><path d="M1 2.99C1 3.004.998 3 .999 3H12C11.998 3 12 2.998 12 2.99V1.01c0-.013.002-.01.001-.01H1c.003 0 .001.002.001.01v1.98z" fill="#D5D7DC"/><path fill="#525C6F" d="M4 1h1v2H4zM8 1h1v2H8z"/></g></g></svg><svg width="22" height="22" viewBox="-2 -2 22 22" id="src--svg--text_background" x="132" y="200" xmlns="http://www.w3.org/2000/svg"><title>文字填充</title><g transform="translate(-312 -16)" fill="none" fill-rule="evenodd"><g transform="translate(314 19)"><path fill="#FFF" d="M0 10h1v1H0zM1 11h3v1H1z"/><path d="M5.998 2.053L7.094.97 7.231 0H12v5.41l-1.029.61-1.429 1.33-.967.194-4.024-4.062 1.447-1.43z" fill="#D5D7DC"/><path d="M3 8h1v3H3V8z" fill="#414C62"/><path d="M3 5v4.001H2V10H1v1h3v-1h4v-.999h-.999v-1h-1v-1H5v1H4v-1h1V6H4V5H3z" fill="#525C6F"/><path d="M7 6h1v1H7V6zM5 4h1v1H5V4zM6 5h1v1H6V5zM11 5h1v1h-1V5zM10 6h1v1h-1V6zM8 7h2v1H8V7zM4 3h1v1H4V3zM5 2h1v1H5V2zM6 1h1v1H6V1zM7 0h1v1H7V0z" fill="#414C62"/></g></g></svg><svg width="22" height="22" viewBox="-2 -2 22 22" id="src--svg--text_color" x="154" y="200" xmlns="http://www.w3.org/2000/svg"><title>文字颜色</title><g transform="translate(-263 -17)" fill="none" fill-rule="evenodd"><g transform="translate(266 20)"><path d="M4.665 0L0 11h1.461l1.262-3.081h5.446l1.261 3.08h1.477L6.243 0H4.665z" fill="#414C62"/><path d="M5.429 1.356h.067l2.241 5.5H3.155l2.274-5.5z" fill="#FFF"/></g></g></svg><svg width="18" height="17" viewBox="-2 -2 18 17" id="src--svg--todo" x="102" y="84" xmlns="http://www.w3.org/2000/svg"><g fill="none" fill-rule="evenodd"><path fill="#525C6F" d="M11.937 3.28l-5.643 6.83-3.126-4.444h.516l2.61 2 4.987-4.386z"/><rect width="13" height="12" x=".5" y=".5" stroke="#525C6F" rx="1"/></g></svg><svg width="22" height="22" viewBox="-2 -2 22 22" id="src--svg--toggle_tab" x="198" y="200" xmlns="http://www.w3.org/2000/svg"><title>Slice 11</title><g fill="none" fill-rule="evenodd"><path fill-opacity="0" fill="#D8D8D8" d="M0 0h18v18H0z"/><g transform="rotate(-45 16.425 -.268)" fill="#525C6F"><path d="M0 0h5v1H0z"/><path d="M4 5V0h1v5z"/></g><g transform="rotate(-45 11.596 -2.268)" fill="#525C6F"><path d="M0 0h5v1H0z"/><path d="M4 5V0h1v5z"/></g></g></svg><svg width="34" height="38" viewBox="-2 -2 34 38" id="src--svg--type_audio_large" x="54" xmlns="http://www.w3.org/2000/svg"><title>语音速记30*34</title><g fill="none" fill-rule="evenodd"><path d="M0 2C0 .895.89 0 1.991 0H22l8 8v24.003A1.998 1.998 0 0 1 28.008 34H1.992C.892 34 0 33.108 0 32V2z" fill="#BCA5FF"/><path d="M16 26v-2.05a9.996 9.996 0 0 0 7.602-4.847l-1.72-1.022A7.994 7.994 0 0 1 15 22a7.994 7.994 0 0 1-6.868-3.895l-1.716 1.027A9.995 9.995 0 0 0 14 23.95V26h-2.003c-.544 0-.997.448-.997 1 0 .556.446 1 .997 1h6.006c.544 0 .997-.448.997-1 0-.556-.446-1-.997-1H16zm-6-15.005a5.001 5.001 0 0 1 10 0v4.01a5.001 5.001 0 0 1-10 0v-4.01zm2 0v4.01a3.001 3.001 0 0 0 6 0v-4.01a3.001 3.001 0 0 0-6 0z" fill="#FFF"/><path d="M1 2v30c0 .555.443 1 .992 1h26.016a.998.998 0 0 0 .992-.997V8l.293.707-8-8L22 1H1.991A.994.994 0 0 0 1 2zM0 2C0 .895.89 0 1.991 0H22l8 8v24.003A1.998 1.998 0 0 1 28.008 34H1.992C.892 34 0 33.108 0 32V2z" fill-opacity=".05" fill="#000"/><path fill-opacity=".1" fill="#000" d="M23 7h6.024L30 8.036V14z"/><path d="M22 0l8 8-6.002.003A1.992 1.992 0 0 1 22 6.005V0z" fill="#DDD2FF"/></g></svg><svg width="34" height="38" viewBox="-2 -2 34 38" id="src--svg--type_compress_large" x="156" y="38" xmlns="http://www.w3.org/2000/svg"><title>zip</title><defs><path id="cka" d="M0 2C0 .895.89 0 1.99 0h20.002L30 8v24.003A1.998 1.998 0 0 1 28.008 34H1.992C.892 34 0 33.108 0 32V2z"/></defs><g fill="none" fill-rule="evenodd"><use fill="#D4965A" xlink:href="#cka"/><path d="M1 32c0 .555.443 1 .992 1h26.016a.998.998 0 0 0 .992-.997s.089-23.5-.013-23.602C26.425 5.836 21.733 1 21.595 1H1.992A.995.995 0 0 0 1 2v30zM0 2C0 .895.89 0 1.992 0h20.016L30 8v24.003A1.998 1.998 0 0 1 28.008 34H1.992C.892 34 0 33.108 0 32V2z" fill-opacity=".05" fill="#000"/><path d="M23 7l7 1v6l-7-7z" fill-opacity=".1" fill="#000"/><path d="M22 0l8 8h-6.002A1.993 1.993 0 0 1 22 6.002V0z" fill="#E6C19E"/><path d="M13 9h2v2h-2V9zm2 2h2v2h-2v-2zm-2 2h2v2h-2v-2zm2 2h2v2h-2v-2zm-2 2h2v2h-2v-2zm0 4h2v4h-2v-4zm2-2h2v2h-2v-2zm0 4h2v2h-2v-2z" fill="#FFF"/></g></svg><svg width="34" height="38" viewBox="-2 -2 34 38" id="src--svg--type_csv_large" x="156" y="76" xmlns="http://www.w3.org/2000/svg"><title>csv 30*34</title><g fill="none" fill-rule="evenodd"><path d="M0 2C0 .895.89 0 1.991 0H22l8 8v24.003A1.998 1.998 0 0 1 28.008 34H1.992C.892 34 0 33.108 0 32V2z" fill="#5BCB8A"/><path d="M1 2v30c0 .555.443 1 .992 1h26.016a.998.998 0 0 0 .992-.997V8l.293.707-8-8L22 1H1.991A.994.994 0 0 0 1 2zM0 2C0 .895.89 0 1.991 0H22l8 8v24.003A1.998 1.998 0 0 1 28.008 34H1.992C.892 34 0 33.108 0 32V2z" fill-opacity=".05" fill="#000"/><path fill-opacity=".1" fill="#000" d="M23 7h6.024L30 8.036V14z"/><path d="M22 0l8 8-6.002.003A1.992 1.992 0 0 1 22 6.005V0z" fill="#9AE2B8"/><text font-family="Arial-BoldMT, Arial" font-size="13" font-weight="bold" fill="#FFF"><tspan x="4" y="21">csv</tspan></text></g></svg><svg width="34" height="38" viewBox="-2 -2 34 38" id="src--svg--type_excel_large" y="140" xmlns="http://www.w3.org/2000/svg"><title>excel</title><g fill="none" fill-rule="evenodd"><path d="M0 2C0 .895.892 0 1.996 0H22.06L30 7.962V32a2 2 0 0 1-1.992 2H1.992C.892 34 0 33.108 0 32V2z" fill="#4EC781"/><path d="M1 32c0 .555.443 1 .992 1h26.016a.998.998 0 0 0 .992-.997s.089-23.5-.013-23.602C26.425 5.836 21.733 1 21.595 1H1.992A.995.995 0 0 0 1 2v30zM0 2C0 .895.89 0 1.992 0h20.016L30 8v24.003A1.998 1.998 0 0 1 28.008 34H1.992C.892 34 0 33.108 0 32V2z" fill-opacity=".05" fill="#000"/><path d="M23 7l7 1v6l-7-7z" fill-opacity=".1" fill="#000"/><path d="M22 0l8 8h-6.002A1.993 1.993 0 0 1 22 6.002V0z" fill="#9AE2B8"/><path d="M17 10l-2 3-2-3H9l4 6-5 8h7v-2h-2l2-3 2 5h4l-4-8 4-6h-4z" fill="#FFF"/></g></svg><svg width="34" height="38" viewBox="-2 -2 34 38" id="src--svg--type_flash_large" x="34" y="140" xmlns="http://www.w3.org/2000/svg"><title>flash</title><defs><path id="cna" d="M0 2C0 .895.89 0 1.992 0h20.021L30 7.962V32a2 2 0 0 1-1.992 2H1.992C.892 34 0 33.108 0 32V2z"/></defs><g fill="none" fill-rule="evenodd"><use fill="#FA5D5D" xlink:href="#cna"/><path d="M1 32c0 .555.443 1 .992 1h26.016a.998.998 0 0 0 .992-.997s.089-23.5-.013-23.602C26.425 5.836 21.733 1 21.595 1H1.992A.995.995 0 0 0 1 2v30zM0 2C0 .895.89 0 1.992 0h20.016L30 8v24.003A1.998 1.998 0 0 1 28.008 34H1.992C.892 34 0 33.108 0 32V2z" fill-opacity=".05" fill="#000"/><path d="M23 7l7 1v6l-7-7z" fill-opacity=".1" fill="#000"/><path d="M22 0l8 8h-6.002A1.993 1.993 0 0 1 22 6.002V0z" fill="#FFA7A7"/><path d="M8.19 22.45V25c4.9-.326 7.02-2.376 7.92-6.091h4.028v-2.54H16.55c.636-4.16 4.45-4.75 4.45-4.82V9c-1.165.082-6.387 1.663-7.035 7.353-.623 5.456-3.446 5.959-5.775 6.098z" fill="#FFF"/></g></svg><svg width="34" height="38" viewBox="-2 -2 34 38" id="src--svg--type_html_large" x="68" y="140" xmlns="http://www.w3.org/2000/svg"><title>IE</title><defs><path id="coa" d="M0 2C0 .895.89 0 1.994 0h20.037L30 7.962V32a2 2 0 0 1-1.992 2H1.992C.892 34 0 33.108 0 32V2z"/></defs><g fill="none" fill-rule="evenodd"><use fill="#65A6F3" xlink:href="#coa"/><path d="M1 32c0 .555.443 1 .992 1h26.016a.998.998 0 0 0 .992-.997s.089-23.5-.013-23.602C26.425 5.836 21.733 1 21.595 1H1.992A.995.995 0 0 0 1 2v30zM0 2C0 .895.89 0 1.992 0h20.016L30 8v24.003A1.998 1.998 0 0 1 28.008 34H1.992C.892 34 0 33.108 0 32V2z" fill-opacity=".05" fill="#000"/><path d="M23 7l7 1v6l-7-7z" fill-opacity=".1" fill="#000"/><path d="M22 0l8 8h-6.002A1.993 1.993 0 0 1 22 6.002V0z" fill="#A3CBFA"/><path d="M21.081 9.755c-.671-.621-1.527-.68-2.297-.684-.821.032-1.651.22-2.36.526a7.05 7.05 0 0 0-1.188.54c-.095.049-.18.129-.268.2a7.728 7.728 0 0 0-.586-.027c-.849 0-1.653.157-2.412.467a6.022 6.022 0 0 0-2 1.33 6.296 6.296 0 0 0-1.35 2.028 6.473 6.473 0 0 0-.491 2.54c0 .13.023.241.028.368-.499.8-.87 1.575-1.115 2.33-.362 1.12-.52 2.02-.496 2.83.034 1.197.316 2.086.867 2.72.501.567 1.163.854 1.964.854.14 0 .275-.008.4-.023.628-.07 1.112-.24 1.532-.4.769-.32 1.161-.604 1.203-.636l-.488-.98c-.004.002-.402.147-1.095.282-.455.092-.793.126-1.2.097-.4-.025-.763-.184-.905-.399-.201-.3-.288-.803-.26-1.49.033-.57.186-1.22.452-1.96.24.409.515.791.855 1.125 1.16 1.143 2.694 1.713 4.6 1.713 1.385 0 2.61-.336 3.674-1.012 1.064-.676 1.76-1.797 2.088-3.118h-3.551c-.179.42-.465.868-.86 1.102-.394.232-.83.35-1.306.35-.79 0-1.411-.249-1.864-.748-.455-.495-.697-1.164-.727-2.003h8.532c0-.977-.132-2.372-.392-3.204a6.495 6.495 0 0 0-1.16-2.19c-.318-.39-.701-.705-1.115-.984l.258-.086c.209-.091.466-.14.714-.188l.12-.025c.177-.022.35-.036.512-.036.371 0 .538.075.595.112.247.174.425.496.47.708.122.668.094 1.086.093 1.09l1.046.196.103-.429c.043-.226.106-.569.09-1.034-.028-.44-.078-1.178-.71-1.852zm-9.156 5.656c.12-.746.395-1.293.826-1.744.432-.449.976-.675 1.631-.675.625 0 1.15.237 1.574.71.424.474.651 1.01.68 1.709h-4.71z" fill="#FFF"/></g></svg><svg width="34" height="38" viewBox="-2 -2 34 38" id="src--svg--type_image_large" x="102" y="140" xmlns="http://www.w3.org/2000/svg"><title>pic</title><defs><path id="cpa" d="M0 2C0 .895.892 0 1.997 0h20.065L30 7.962V32a2 2 0 0 1-1.992 2H1.992C.892 34 0 33.108 0 32V2z"/></defs><g fill="none" fill-rule="evenodd"><use stroke-opacity=".05" stroke="#000" fill="#67CCBA" xlink:href="#cpa"/><path d="M1 32c0 .555.443 1 .992 1h26.016a.998.998 0 0 0 .992-.997s.089-23.5-.013-23.602C26.425 5.836 21.733 1 21.595 1H1.992A.995.995 0 0 0 1 2v30zM0 2C0 .895.89 0 1.992 0h20.016L30 8v24.003A1.998 1.998 0 0 1 28.008 34H1.992C.892 34 0 33.108 0 32V2z" fill-opacity=".05" fill="#000"/><path d="M23 7l7 1v7l-7-8z" fill-opacity=".1" fill="#000"/><path d="M22 0l8 8.008h-6.002a1.994 1.994 0 0 1-1.998-2V0z" fill="#A8E0D6"/><path d="M10.03 13.975c1.116 0 2.02-.9 2.02-2.01 0-1.11-.904-2.01-2.02-2.01s-2.02.9-2.02 2.01c0 1.11.904 2.01 2.02 2.01m2.664 7.52l-1.767-2.458c-.645-.896-1.687-.895-2.33 0L6.308 22.22c-.645.896-.248 1.781.884 1.781h5.137c.139 0 .267-.01.383-.032.116.021.243.032.382.032h9.707c1.125 0 1.535-.895.896-1.8l-4.594-6.521c-.637-.904-1.673-.906-2.312 0l-4.098 5.816" fill="#FFF"/></g></svg><svg width="34" height="38" viewBox="-2 -2 34 38" id="src--svg--type_md_large" x="156" xmlns="http://www.w3.org/2000/svg"><title>mark30*34</title><defs><path d="M0 2C0 .895.89 0 1.992 0H22.01L30 8v24.003A1.998 1.998 0 0 1 28.008 34H1.992C.892 34 0 33.108 0 32V2z" id="cqa"/></defs><g fill="none" fill-rule="evenodd"><use fill="#F78A09" xlink:href="#cqa"/><path fill="#FFF" d="M20 10l-5 5.483L10 10H7v14h3V13.76L13.743 18h2.546L20 13.76V24h3V10z"/><path d="M1 2v30c0 .555.443 1 .992 1h26.016a.998.998 0 0 0 .992-.997V8l.292.707-7.99-8L22.01 1H1.992A.995.995 0 0 0 1 2zM0 2C0 .895.89 0 1.992 0H22.01L30 8v24.003A1.998 1.998 0 0 1 28.008 34H1.992C.892 34 0 33.108 0 32V2z" fill-opacity=".05" fill="#000"/><path fill-opacity=".1" fill="#000" d="M30 14l-8-7h8z"/><path d="M22 0l8 8h-6.002A1.993 1.993 0 0 1 22 6.002V0z" fill="#FFBF81"/></g></svg><svg width="34" height="38" viewBox="-2 -2 34 38" id="src--svg--type_music_large" x="68" y="102" xmlns="http://www.w3.org/2000/svg"><title>music</title><defs><path id="cra" d="M0 2C0 .895.893 0 1.998 0H22.08L30 7.962V32a2 2 0 0 1-1.992 2H1.992C.892 34 0 33.108 0 32V2z"/></defs><g fill="none" fill-rule="evenodd"><use fill="#F28F66" xlink:href="#cra"/><path d="M1 32c0 .555.443 1 .992 1h26.016a.998.998 0 0 0 .992-.997s.089-23.5-.013-23.602C26.425 5.836 21.733 1 21.595 1H1.992A.995.995 0 0 0 1 2v30zM0 2C0 .895.89 0 1.992 0h20.016L30 8v24.003A1.998 1.998 0 0 1 28.008 34H1.992C.892 34 0 33.108 0 32V2z" fill-opacity=".05" fill="#000"/><path d="M23 7l7 1v6l-7-7z" fill-opacity=".1" fill="#000"/><path d="M22 0l8 8h-6.002A1.993 1.993 0 0 1 22 6.002V0z" fill="#FDB293"/><path d="M9.982 10.836c-.542.09-.982.61-.982 1.162V20c-1.082.258-2 1.212-2 2.389a2.237 2.237 0 0 0 2.242 2.23 2.231 2.231 0 0 0 2.228-2.077l.014-.136c.001-.026-.015-9.095-.015-9.095l7.303-1.177v5.075c-.016 0-.03-.004-.047-.004a2.237 2.237 0 0 0-2.243 2.231 2.237 2.237 0 0 0 2.243 2.231c1.2 0 2.17-.938 2.275-1.667V9.996c0-.55-.441-.922-.982-.832L9.982 10.836z" fill="#FFF"/></g></svg><svg width="34" height="38" viewBox="-2 -2 34 38" id="src--svg--type_note_large" y="64" xmlns="http://www.w3.org/2000/svg"><title>note</title><defs><path id="csa" d="M0 2C0 .895.89 0 1.992 0h20.019L30 7.962V32a2 2 0 0 1-1.992 2H1.992C.892 34 0 33.108 0 32V2z"/></defs><g fill="none" fill-rule="evenodd"><use fill="#5C9DF4" xlink:href="#csa"/><path d="M1 32c0 .555.443 1 .992 1h26.016a.998.998 0 0 0 .992-.997s.089-23.5-.013-23.602C26.425 5.836 21.733 1 21.595 1H1.992A.995.995 0 0 0 1 2v30zM0 2C0 .895.89 0 1.992 0h20.016L30 8v24.003A1.998 1.998 0 0 1 28.008 34H1.992C.892 34 0 33.108 0 32V2z" fill-opacity=".05" fill="#000"/><path d="M23 7l7 1v6l-7-7z" fill-opacity=".1" fill="#000"/><path d="M22 0l8 8h-6.002A1.993 1.993 0 0 1 22 6.002V0z" fill="#9DCDFF"/><path d="M22.131 15.46l-5.062-5.07c-.383-.384-.868-.384-1.251 0l-6.39 6.402c-.298.26-.487.642-.487 1.069l-.401 5.055c0 .783.231 1.015 1.012 1.015l5.188-.402c.174 0 .34-.032.494-.09a.974.974 0 0 0 .437-.252l6.46-6.473c.383-.384.383-.87 0-1.254" fill="#FFF"/><path d="M19.593 12.917L8.777 23.733l-.057-.06c.151.185.412.252.832.252l5.188-.403c.174 0 .34-.031.494-.089a.972.972 0 0 0 .437-.253l6.46-6.472c.19-.191.286-.408.287-.624 0-.217-.096-.433-.287-.624l-2.538-2.543" fill="#D9ECFF"/></g></svg><svg width="34" height="38" viewBox="-2 -2 34 38" id="src--svg--type_other_large" x="88" xmlns="http://www.w3.org/2000/svg"><title>？</title><defs><path id="cta" d="M0 2C0 .895.89 0 1.992 0H22.01L30 8v24.003A1.998 1.998 0 0 1 28.008 34H1.992C.892 34 0 33.108 0 32V2z"/></defs><g fill="none" fill-rule="evenodd"><use stroke-opacity=".05" stroke="#000" fill="#B5BBBE" xlink:href="#cta"/><path d="M1 32c0 .555.443 1 .992 1h26.016a.998.998 0 0 0 .992-.997s.089-23.5-.013-23.602C26.425 5.836 21.733 1 21.595 1H1.992A.995.995 0 0 0 1 2v30zm.992-32h20.016L30 8v24.003A1.998 1.998 0 0 1 28.008 34H1.992C.892 34 0 33.108 0 32V2C0 .895.89 0 1.992 0z" fill-opacity=".05" fill="#000"/><path d="M23 7l7 1v6l-7-7z" fill-opacity=".1" fill="#000"/><path d="M22 0l8 8h-6.002A1.993 1.993 0 0 1 22 6.002V0z" fill="#E3E5E5"/><path d="M15.527 25h-1.054c-.26 0-.473-.197-.473-.442v-1.116c0-.244.212-.442.473-.442h1.054c.26 0 .473.198.473.442v1.116c0 .245-.212.442-.473.442zm-5.525-11.535c.058-.714.177-1.364.356-1.782.23-.538.599-1.02 1.106-1.444a5.041 5.041 0 0 1 1.693-.938A6.348 6.348 0 0 1 15.127 9c1.398 0 2.563.384 3.491 1.154.93.768 1.396 1.792 1.396 3.072 0 .574-.12 1.095-.359 1.562-.238.468-.745 1.05-1.52 1.746-.776.698-1.291 1.194-1.543 1.49a2.954 2.954 0 0 0-.578 1.055c-.092.289.02 1.876 0 2.306-.014.318-.302.57-.643.57h-.726c-.375 0-.665-.301-.646-.651.028-.509-.077-2.161.023-2.506.138-.481.344-.9.623-1.26.276-.36.774-.887 1.496-1.585.722-.697 1.187-1.204 1.395-1.52.206-.316.31-.788.31-1.413s-.238-1.178-.714-1.66c-.477-.482-1.167-.722-2.074-.722-1.872 0-2.888 1.04-3.044 2.948-.025.312-.322.544-.656.544h-.711c-.381 0-.674-.31-.645-.665z" fill="#FFF"/></g></svg><svg width="34" height="38" viewBox="-2 -2 34 38" id="src--svg--type_pdf_large" x="68" y="64" xmlns="http://www.w3.org/2000/svg"><title>pdf</title><g fill="none" fill-rule="evenodd"><path d="M0 2C0 .895.892 0 1.997 0h20.067L30 8v24.003A1.998 1.998 0 0 1 28.008 34H1.992C.892 34 0 33.108 0 32V2z" fill="#FA5C47"/><path d="M1 32c0 .555.443 1 .992 1h26.016a.998.998 0 0 0 .992-.997s.089-23.5-.013-23.602C26.425 5.836 21.733 1 21.595 1H1.992A.995.995 0 0 0 1 2v30zM0 2C0 .895.89 0 1.992 0h20.016L30 8v24.003A1.998 1.998 0 0 1 28.008 34H1.992C.892 34 0 33.108 0 32V2z" fill-opacity=".05" fill="#000"/><path d="M23 7h6l1 1v6l-7-7z" fill-opacity=".1" fill="#000"/><path d="M22 0l8 8h-6c-1.105 0-2-.886-2-2V0z" fill="#FE9D8F"/><path d="M22.337 18.675a2.081 2.081 0 0 0-1.64-1.075c-.775-.074-1.859.005-3.377.237a125.46 125.46 0 0 0-.618-.566c-1.04-.942-1.958-2.303-2.183-2.644.286-2.689.154-3.508-.014-3.95C14.105 9.627 13.33 9 12.432 9c-.69 0-1.334.39-1.682 1.018-.402.724-.36 1.633.119 2.49.252.454.59.823 1.018 1.29.305.334.675.737 1.112 1.28-.059.505-.122.99-.178 1.417-.138 1.056-.324 1.867-.52 2.726l-.019.081c-.156.069-.316.137-.479.206-.87.367-1.855.784-2.625 1.51-1.433 1.348-1.223 2.478-1.066 2.901C8.359 24.586 8.968 25 9.7 25c.734 0 1.481-.424 2.05-1.167a10.969 10.969 0 0 0 1.752-3.42c.904-.365 2.342-.786 3.02-.905l.342-.059.227.212c.72.672 1.427 1.33 1.947 1.774.424.36.96.558 1.51.558h.002c.866 0 1.63-.49 1.947-1.245.262-.628.199-1.44-.16-2.073zm-11.546 4.004c-.282.366-.618.586-.896.586-.055 0-.187-.01-.223-.108-.064-.172.063-.637.673-1.212.394-.372.902-.649 1.435-.895a9.15 9.15 0 0 1-.989 1.629zm2.544-9.715a58.385 58.385 0 0 0-.245-.268c-.369-.404-.636-.695-.8-.99-.206-.37-.248-.718-.116-.957a.478.478 0 0 1 .412-.255c.276 0 .533.259.704.708.038.098.126.475.045 1.762zm.741 5.538l.032-.133-.024.012c.11-.518.212-1.075.298-1.709.347.441.767.932 1.225 1.376-.467.121-1.014.282-1.53.454zm7.104 1.474c-.083.198-.318.328-.599.328a.891.891 0 0 1-.577-.213 39.008 39.008 0 0 1-1.187-1.068c.753-.082 1.333-.11 1.774-.063.232.021.4.13.512.33.137.239.142.532.077.686z" fill="#FFF"/></g></svg><svg width="34" height="38" viewBox="-2 -2 34 38" id="src--svg--type_ppt_large" x="102" y="102" xmlns="http://www.w3.org/2000/svg"><title>ppt</title><defs><path id="cva" d="M0 2C0 .895.89 0 1.991 0H22l8 8v24.003A1.998 1.998 0 0 1 28.008 34H1.992C.892 34 0 33.108 0 32V2z"/></defs><g fill="none" fill-rule="evenodd"><use fill="#E7A74D" xlink:href="#cva"/><path d="M1 32c0 .555.443 1 .992 1h26.016a.998.998 0 0 0 .992-.997s.089-23.5-.013-23.602C26.425 5.836 21.733 1 21.595 1H1.992A.995.995 0 0 0 1 2v30zM0 2C0 .895.89 0 1.992 0h20.016L30 8v24.003A1.998 1.998 0 0 1 28.008 34H1.992C.892 34 0 33.108 0 32V2z" fill-opacity=".05" fill="#000"/><path d="M23 7h6l1 1v6l-7-7z" fill-opacity=".1" fill="#000"/><path d="M22 0l8 8h-6c-1.105 0-2-.886-2-2V0z" fill="#F3CA91"/><path d="M11 10v15h3v-5l2.017.026c2.141 0 4.21-.823 4.21-4.98 0-3.508-1.056-5.048-4.755-5.046H11zm3 7v-3.998h1.222c1.666-.047 1.775.619 1.775 1.914.044 1.44-.446 2.084-1.775 2.084H14z" fill="#FFF"/></g></svg><svg width="34" height="38" viewBox="-2 -2 34 38" id="src--svg--type_scan_large" x="34" y="102" xmlns="http://www.w3.org/2000/svg"><title>30*34文档扫描</title><defs><path d="M0 2C0 .895.89 0 1.992 0H22.01L30 8v24.003A1.998 1.998 0 0 1 28.008 34H1.992C.892 34 0 33.108 0 32V2z" id="cwa"/></defs><g fill="none" fill-rule="evenodd"><use fill="#43D9AD" xlink:href="#cwa"/><path d="M9 11.999c0-.552.456-.999 1.002-.999h9.996a1 1 0 0 1 1.002.999V23c0 .552-.456.999-1.002.999h-9.996A1 1 0 0 1 9 23.001V12z" fill="#FFF"/><path d="M12.5 14.5h5M12.5 17.5h5M12.5 20.5h5" stroke="#43D9AD" stroke-linecap="square"/><path fill="#FFF" d="M10 9V8H6v4h1V9zM20 9V8h4v4h-1V9zM10 26v1H6v-4h1v3zM20 26v1h4v-4h-1v3z"/><path d="M1 2v30c0 .555.443 1 .992 1h26.016a.998.998 0 0 0 .992-.997V8l.292.707-7.99-8L22.01 1H1.992A.995.995 0 0 0 1 2zM0 2C0 .895.89 0 1.992 0H22.01L30 8v24.003A1.998 1.998 0 0 1 28.008 34H1.992C.892 34 0 33.108 0 32V2z" fill-opacity=".05" fill="#000"/><path fill-opacity=".1" fill="#000" d="M30 8v6l-7.506-6.67 6.52-.33z"/><path d="M22 0l8 8h-6.002A1.993 1.993 0 0 1 22 6.002V0z" fill="#80EFCE"/></g></svg><svg width="34" height="38" viewBox="-2 -2 34 38" id="src--svg--type_table_large" y="102" xmlns="http://www.w3.org/2000/svg"><title>form</title><defs><path id="cxa" d="M0 2C0 .895.892 0 1.996 0h20.056L30 7.962V32a2 2 0 0 1-1.992 2H1.992C.892 34 0 33.108 0 32V2z"/></defs><g fill="none" fill-rule="evenodd"><use fill="#E192B5" xlink:href="#cxa"/><path d="M1 32c0 .555.443 1 .992 1h26.016a.998.998 0 0 0 .992-.997s.089-23.5-.013-23.602C26.425 5.836 21.733 1 21.595 1H1.992A.995.995 0 0 0 1 2v30zM0 2C0 .895.89 0 1.992 0h20.016L30 8v24.003A1.998 1.998 0 0 1 28.008 34H1.992C.892 34 0 33.108 0 32V2z" fill-opacity=".05" fill="#000"/><path d="M23 7l7 1v6l-7-7z" fill-opacity=".1" fill="#000"/><path d="M22 0l8 8h-6.002A1.993 1.993 0 0 1 22 6.002V0z" fill="#F3BDD4"/><path d="M13 16H9v-4h12v4h-6v-4h-2v4zm0 2H9v4h12v-4h-6v4h-2v-4zm-6-6.993C7 10.45 7.445 10 8 10h14c.552 0 1 .45 1 1.007v11.986C23 23.55 22.555 24 22 24H8c-.552 0-1-.45-1-1.007V11.007z" fill="#FFF"/></g></svg><svg width="34" height="38" viewBox="-2 -2 34 38" id="src--svg--type_txt_large" x="122" y="38" xmlns="http://www.w3.org/2000/svg"><title>text</title><defs><path id="cya" d="M0 2C0 .895.89 0 1.991 0H22l8 8v24.003A1.998 1.998 0 0 1 28.008 34H1.992C.892 34 0 33.108 0 32V2z"/></defs><g fill="none" fill-rule="evenodd"><use fill="#9BB1C5" xlink:href="#cya"/><path d="M1 32c0 .555.443 1 .992 1h26.016a.998.998 0 0 0 .992-.997s.089-23.5-.013-23.602C26.425 5.836 21.733 1 21.595 1H1.992A.995.995 0 0 0 1 2v30zM0 2C0 .895.89 0 1.992 0h20.016L30 8v24.003A1.998 1.998 0 0 1 28.008 34H1.992C.892 34 0 33.108 0 32V2z" fill-opacity=".05" fill="#000"/><path d="M23 7h6l1 1v6l-7-7z" fill-opacity=".1" fill="#000"/><path d="M22 0l8 8h-6c-1.105 0-2-.886-2-2V0z" fill="#D3DAE1"/><path d="M9 13.691h1.846s.023-.499.923-.845 1.846.135 1.846.135v7.913h-1.898V23h6.587v-2.106h-1.92v-7.913s.77-.596 1.79-.135c1.02.462 1.02.845 1.02.845H21V11H9v2.691z" fill="#FFF"/></g></svg><svg width="34" height="38" viewBox="-2 -2 34 38" id="src--svg--type_video_large" x="122" xmlns="http://www.w3.org/2000/svg"><title>play</title><defs><path id="cza" d="M0 2a2 2 0 0 1 2.003-2h20.126L30 7.962V32a2 2 0 0 1-1.992 2H1.992C.892 34 0 33.108 0 32V2z"/></defs><g fill="none" fill-rule="evenodd"><use stroke-opacity=".05" stroke="#000" fill="#999AEF" xlink:href="#cza"/><path d="M1 32c0 .555.443 1 .992 1h26.016a.998.998 0 0 0 .992-.997s.089-23.5-.013-23.602C26.425 5.836 21.733 1 21.595 1H1.992A.995.995 0 0 0 1 2v30zM0 2C0 .895.89 0 1.992 0h20.016L30 8v24.003A1.998 1.998 0 0 1 28.008 34H1.992C.892 34 0 33.108 0 32V2z" fill-opacity=".05" fill="#000"/><path d="M23 7l7 1v7l-7-8z" fill-opacity=".1" fill="#000"/><path d="M22 0l8 8.008h-6.002a1.994 1.994 0 0 1-1.998-2V0z" fill="#C2C3F8"/><path fill="#FFF" d="M10.99 11.142l9.844 6.125-9.844 6.137z"/></g></svg><svg width="34" height="38" viewBox="-2 -2 34 38" id="src--svg--type_word_large" x="34" y="64" xmlns="http://www.w3.org/2000/svg"><title>word</title><defs><path id="daa" d="M0 2C0 .895.889 0 2.008 0h19.966L30 8.025v23.98A1.997 1.997 0 0 1 28.008 34H1.992C.892 34 0 33.108 0 32V2z"/></defs><g fill="none" fill-rule="evenodd"><use fill="#5BBAEF" xlink:href="#daa"/><path d="M1 32c0 .555.443 1 .992 1h26.016a.998.998 0 0 0 .992-.997s.089-23.5-.013-23.602C26.425 5.836 21.733 1 21.595 1H1.992A.995.995 0 0 0 1 2v30zM0 2C0 .895.89 0 1.992 0h20.016L30 8v24.003A1.998 1.998 0 0 1 28.008 34H1.992C.892 34 0 33.108 0 32V2z" fill-opacity=".05" fill="#000"/><path d="M23 7h6l1 1v6l-7-7z" fill-opacity=".1" fill="#000"/><path d="M22 0l8 8h-6c-1.105 0-2-.886-2-2V0z" fill="#8AD5FF"/><path d="M18.69 11c-.09 0-.164.063-.164.139v1.665c0 .076.075.138.164.138h1.862c.102 0 .18.08.161.166l-1.43 6.606h-.497l-2.048-8.602c-.014-.064-.082-.112-.161-.112h-2.958c-.076 0-.144.045-.16.11l-2.3 8.604h-.447l-1.788-8.598c-.013-.067-.082-.116-.161-.116H6.165c-.104 0-.183.08-.162.167L9.16 23.89c.016.065.083.111.162.111h2.958c.077 0 .144-.046.16-.11l2.385-9.189c.037-.148.288-.147.321.002l2.185 9.185c.016.065.084.112.162.112h2.885c.077 0 .145-.046.16-.11l3.298-12.722c.022-.086-.056-.168-.16-.168H18.69z" fill="#FFF"/></g></svg><svg width="22" height="22" viewBox="-2 -2 22 22" id="src--svg--underline" x="234" y="66" xmlns="http://www.w3.org/2000/svg"><title>下划线</title><g transform="translate(-179 -17)" fill="none" fill-rule="evenodd"><g transform="translate(183 20)" fill="#525C6F"><path d="M0 13h11v-1H0v1zM2.264 0v5.576c0 1.08.231 1.896.724 2.451.51.57 1.31.863 2.404.863 1.08 0 1.88-.293 2.405-.863.477-.555.724-1.372.724-2.45V0h1.264v5.561c0 1.433-.37 2.528-1.095 3.283C7.935 9.614 6.841 10 5.392 10 3.944 10 2.85 9.614 2.11 8.86 1.37 8.09 1 6.993 1 5.56V.001h1.264z"/></g></g></svg><svg width="22" height="22" viewBox="-2 -2 22 22" id="src--svg--undo" x="22" y="178" xmlns="http://www.w3.org/2000/svg"><title>undo</title><g transform="translate(-66 -47)" fill="none" fill-rule="evenodd"><path d="M75.259 52.714a8.233 8.233 0 0 0-5.84 2.42L67 52.713v7.293h7.229L71.684 57.4c1.421-1.214 3.241-1.975 5.256-1.975 2.421 0 4.57 1.366 6.06 3.044-1.148-3.182-4.165-5.755-7.741-5.755z" fill="#CBCBCB"/></g></svg><svg width="22" height="22" viewBox="-2 -2 22 22" id="src--svg--undo_active" x="44" y="222" xmlns="http://www.w3.org/2000/svg"><title>undo hover</title><g transform="translate(-126 -47)" fill="none" fill-rule="evenodd"><path d="M135.259 52.714a8.233 8.233 0 0 0-5.84 2.42L127 52.713v7.293h7.229l-2.545-2.607c1.421-1.214 3.241-1.975 5.256-1.975 2.421 0 4.57 1.366 6.06 3.044-1.148-3.182-4.165-5.755-7.741-5.755z" fill="#525C6F"/></g></svg></svg>