        <svg xmlns="http://www.w3.org/2000/svg" version="1.1">
            <g id="folder" fill="none" fill-rule="evenodd">
                <path
                    d="M0 2.995C0 2.445.442 2 1.01 2h8.91c.557 0 1.326.31 1.72.696L14 5h17.007c.548 0 .993.44.993 1.002v19.996c0 .553-.452 1.002-.993 1.002H.993A1 1 0 0 1 0 26.005V2.995z"
                    fill="#F9C932"></path>
                <path
                    d="M1 2.995v23.01c0-.007.002-.005-.007-.005h30.014c-.01 0-.007-.003-.007-.002V6.002c0-.008.006-.002.007-.002H13.586l-.293-.293-2.29-2.29c-.203-.203-.716-.417-1-.417H.997C.998 3 1 2.998 1 2.995zm-1 0C0 2.445.445 2 .996 2h9.008c.55 0 1.317.32 1.707.71L14 5h17.007c.548 0 .993.44.993 1.002v19.996c0 .553-.452 1.002-.993 1.002H.993A1 1 0 0 1 0 26.005V2.995z"
                    fill="#EBBA37"></path>
                <path fill="#FFF" d="M3 5h11v5H3z"></path>
                <path
                    d="M0 9.003A1 1 0 0 1 .996 8h9.008c.55 0 1.317-.32 1.707-.71L14 5h17.007c.548 0 .993.45.993 1.003v23.994c0 .554-.452 1.003-.993 1.003H.993A.991.991 0 0 1 0 29.997V9.003z"
                    fill="#F7D478"></path>
                <path
                    d="M0 9.003A1 1 0 0 1 .996 8h9.008c.55 0 1.317-.32 1.707-.71L14 5h17.007c.548 0 .993.45.993 1.003v23.994c0 .554-.452 1.003-.993 1.003H.993A.991.991 0 0 1 0 29.997V9.003z">
                </path>
                <path
                    d="M1 9.003v20.994c0 .01-.006.003-.007.003h30.014c-.01 0-.007-.003-.007-.003V6.003C31 6 31 6 31.007 6H14l.707-.293-2.29 2.29C11.84 8.573 10.82 9 10.005 9H.996C1 9 1 9 1 9.003zm-1 0A1 1 0 0 1 .996 8h9.008c.55 0 1.317-.32 1.707-.71L14 5h17.007c.548 0 .993.45.993 1.003v23.994c0 .554-.452 1.003-.993 1.003H.993A.991.991 0 0 1 0 29.997V9.003z"
                    fill="#EBBA37"></path>
            </g>
        </svg>